<?xml version="1.0" encoding="utf-8"?>
<!-- Generator: Adobe Illustrator 23.0.1, SVG Export Plug-In . SVG Version: 6.00 Build 0)  -->
<svg version="1.1" id="katman_1" xmlns="http://www.w3.org/2000/svg" xmlns:xlink="http://www.w3.org/1999/xlink" x="0px" y="0px"
	 viewBox="0 0 615 143" style="enable-background:new 0 0 615 143;" xml:space="preserve">
<style type="text/css">
	.st0{fill:#F03325;}
	.st1{fill:#2B3346;}
</style>
<g>
	<g>
		<path class="st0" d="M41.19,67.87c-9.19,1-16.69,9.14-17.43,18.97c-0.73,9.67,6,19.52,15.75,21.55c5.73,1.2,11.79,0.83,17.71,1.04
			c3.56,0.13,7.13,0.03,10.7,0.02c2.26,0,4.94-0.24,4.99,2.93c0.05,2.91-0.98,6.33-4.33,6.3c-10.65-0.1-21.55,0.47-31.88-1.58
			c-13.49-2.68-22.66-15.99-22.42-29.16c0.26-14.2,9.78-25.94,24.02-29.4c2.35-0.57,3.29-1.51,3.7-4.04
			c5.2-31.87,40.54-48.67,67.94-32.39c2.11,1.25,4.68,2.27,3.5,5.74c-1.61,4.74-3.51,5.54-7.91,3.04
			c-22.2-12.62-48.39-0.88-53.61,24.06c-1.4,6.71-0.65,13.27,1.8,19.67c0.62,1.63,1.6,3.78,1.01,5.05c-0.93,2.03-2.85,3.8-4.76,5.06
			c-0.42,0.28-3.15-1.76-3.77-3.18C44.27,77.12,42.83,72.46,41.19,67.87z"/>
		<path class="st0" d="M133.08,67.47c-1.84,5.16-3.19,9.71-5.12,14c-0.67,1.49-3.69,3.53-4.12,3.22c-1.84-1.33-3.46-3.27-4.46-5.33
			c-0.5-1.03,0.33-2.86,0.86-4.22c4-10.28,3.7-20.39-1.53-30.09c-1.92-3.56-0.38-6.18,1.51-8.5c2.04-2.51,4.55-1.4,5.66,1.15
			c2.24,5.13,4.3,10.36,5.91,15.71c0.88,2.92,1.64,4.61,5.12,5.41c13.84,3.16,23.12,16.09,22.65,30.73
			c-0.44,13.69-10.9,26.42-24.51,28.35c-8.47,1.2-17.17,0.84-25.77,0.98c-8.87,0.14-17.75,0.03-26.69,0.03
			c1.03-7.84,2.76-9.45,9.64-9.45c12.34-0.01,24.68,0.13,37.02-0.07c9.82-0.16,18.47-7.2,20.51-16.21
			c2.2-9.7-2.43-19.58-11.31-23.88C136.77,68.48,134.89,68.08,133.08,67.47z"/>
		<g>
			<path class="st1" d="M108.48,53.68c-5.67,10.16-11.19,20.13-16.81,30.04c-1.39,2.45-3.57,2.99-6.08,1.58
				c-5.03-2.83-10.04-5.69-15.02-8.51c1.5-4.23,3.32-5.1,6.87-3.41c1.33,0.64,2.56,1.49,3.88,2.16c4.05,2.05,6.67,1.38,8.93-2.55
				c3.33-5.77,6.56-11.61,9.74-17.47C101.94,51.91,104.46,50.99,108.48,53.68z"/>
		</g>
	</g>
</g>
<g>
	<g>
		<g>
			<path class="st1" d="M172.73,87.55V80.6c6.13,2.18,12.75,3.27,19.86,3.27c10.05,0,15.08-3.68,15.08-11.03
				c0-6.27-3.7-9.4-11.11-9.4h-7.52c-12.23,0-18.35-5.31-18.35-15.94c0-11.17,7.83-16.75,23.5-16.75c6.81,0,13.14,0.82,19,2.45v6.95
				c-5.86-2.18-12.19-3.27-19-3.27c-10.62,0-15.94,3.54-15.94,10.62c0,6.27,3.6,9.4,10.79,9.4h7.52c12.45,0,18.67,5.31,18.67,15.94
				c0,11.44-7.55,17.16-22.64,17.16C185.48,90,178.86,89.18,172.73,87.55z"/>
			<path class="st1" d="M225.44,89.59v-42.9h5.11l1.27,5.39c4.11-3.6,8.59-5.39,13.44-5.39c6.21,0,10.45,1.96,12.71,5.88
				c4.66-3.92,9.38-5.88,14.18-5.88c9.86,0,14.79,5.43,14.79,16.3v26.6h-7.56V62.58c0-6.4-2.7-9.6-8.09-9.6
				c-4.03,0-7.8,1.85-11.32,5.56v31.05h-7.56V62.7c0-6.48-2.67-9.72-8.01-9.72c-4.25,0-8.05,1.85-11.4,5.56v31.05H225.44z"/>
			<path class="st1" d="M297.15,76.64c0-8.8,5.8-13.2,17.41-13.2c3.73,0,7.46,0.27,11.2,0.82v-4.05c0-4.93-3.85-7.4-11.56-7.4
				c-4.41,0-8.93,0.68-13.57,2.04v-6.13c4.63-1.36,9.15-2.04,13.57-2.04c12.75,0,19.12,4.44,19.12,13.32v29.58h-4.25l-2.62-4.25
				c-4.28,2.83-8.93,4.25-13.97,4.25C302.26,89.59,297.15,85.27,297.15,76.64z M314.56,69.57c-6.57,0-9.85,2.32-9.85,6.95
				s2.59,6.95,7.76,6.95c5.23,0,9.66-1.39,13.28-4.17v-8.91C322.02,69.84,318.29,69.57,314.56,69.57z"/>
			<path class="st1" d="M345.57,89.59v-42.9h5.11l1.35,5.48c3.76-3.65,8.28-5.48,13.57-5.48v6.29c-5.12,0-9.28,1.81-12.46,5.43
				v31.18H345.57z"/>
			<path class="st1" d="M373.15,39.74h4.74l1.63,6.95h11.6v6.13h-10.42v24.64c0,4,1.73,6.01,5.19,6.01h5.23v6.13h-7.19
				c-7.19,0-10.79-3.85-10.79-11.56V39.74z"/>
		</g>
		<g>
			<path class="st1" d="M407.67,36.17h10.13l5.76,38.66l14-38.66h9.6l13.1,37.15l6.1-37.15h9.82L466.05,90h-9.49l-14.79-42.24
				L425.89,90h-9.37L407.67,36.17z"/>
			<path class="st1" d="M483.14,90V36.17h9.98v22.21h26.54V36.17h9.98V90h-9.98V67.04h-26.54V90H483.14z"/>
			<path class="st1" d="M540.92,90V36.17h10.35l18.26,40.84l17.88-40.84h9.98V90h-9.22V52.51L573.56,90h-8.51l-14.91-37.49V90
				H540.92z"/>
		</g>
	</g>
</g>
<g>
	<path d="M347.07,114.75l-2.71-14.15h1.66l1.2,6.83c0.31,1.77,0.52,3.37,0.71,5.1h0.07c0.18-1.79,0.5-3.32,0.85-5.13l1.31-6.8h1.37
		l1.31,6.66c0.32,1.67,0.63,3.28,0.83,5.27h0.06c0.24-2.04,0.48-3.58,0.75-5.19l1.17-6.74h1.58l-2.75,14.15h-1.58l-1.36-6.88
		c-0.28-1.5-0.55-3.09-0.72-4.65h-0.04c-0.2,1.6-0.45,3.12-0.78,4.71l-1.4,6.82H347.07z"/>
	<path d="M359.42,109.81c0.01,3.12,1.24,3.77,2.4,3.77c0.7,0,1.28-0.17,1.68-0.38l0.27,1.18c-0.56,0.32-1.43,0.49-2.24,0.49
		c-2.43,0-3.69-1.99-3.69-5.1c0-3.29,1.4-5.35,3.43-5.35c2.08,0,2.91,2.19,2.91,4.47c0,0.4-0.01,0.67-0.03,0.91H359.42z
		 M362.61,108.62c0.03-2.04-0.74-2.94-1.51-2.94c-1.07,0-1.6,1.54-1.67,2.94H362.61z"/>
	<path d="M366.08,114.75c0.03-0.58,0.08-1.75,0.08-2.43v-12.1h1.6v5.57h0.04c0.53-1.01,1.28-1.36,2.14-1.36
		c1.59,0,2.78,1.81,2.78,5.14c0,3.67-1.52,5.35-3.08,5.35c-1.08,0-1.62-0.63-2.02-1.5h-0.07l-0.11,1.33H366.08z M367.77,111.16
		c0,0.23,0.02,0.45,0.07,0.63c0.37,1.5,1.07,1.77,1.51,1.77c1.3,0,1.76-1.76,1.76-3.92c0-2.04-0.48-3.84-1.79-3.84
		c-0.75,0-1.37,0.94-1.5,1.81c-0.03,0.22-0.05,0.47-0.05,0.7V111.16z"/>
	<path d="M380.15,100.6v6.07h3.96v-6.07h1.61v14.15h-1.61v-6.61h-3.96v6.61h-1.61V100.6H380.15z"/>
	<path d="M394.55,109.66c0,3.93-1.83,5.26-3.38,5.26c-1.82,0-3.3-1.66-3.3-5.23c0-3.7,1.66-5.26,3.41-5.26
		C393.09,104.43,394.55,106.13,394.55,109.66z M389.49,109.66c0,1.68,0.3,3.96,1.75,3.96c1.39,0,1.67-2.37,1.67-3.96
		c0-1.56-0.28-3.95-1.72-3.95C389.77,105.72,389.49,108.11,389.49,109.66z"/>
	<path d="M396.35,113.06c0.36,0.24,0.99,0.53,1.64,0.53c0.92,0,1.5-0.56,1.5-1.48c0-0.76-0.29-1.3-1.3-1.98
		c-1.33-0.85-2.06-1.73-2.06-2.89c0-1.65,1.23-2.81,2.81-2.81c0.79,0,1.39,0.26,1.81,0.52l-0.43,1.22
		c-0.38-0.27-0.81-0.46-1.35-0.46c-0.86,0-1.31,0.64-1.31,1.29c0,0.68,0.26,1.07,1.26,1.75c1.17,0.76,2.1,1.68,2.1,3.1
		c0,2.04-1.39,3.02-3.06,3.02c-0.74,0-1.57-0.23-2.01-0.59L396.35,113.06z"/>
	<path d="M404.95,101.89v2.7h1.95v1.23h-1.95v6.04c0,1.32,0.47,1.67,1.06,1.67c0.26,0,0.47-0.02,0.65-0.06l0.07,1.25
		c-0.29,0.1-0.67,0.16-1.2,0.16c-0.64,0-1.21-0.17-1.59-0.61c-0.41-0.46-0.61-1.14-0.61-2.55v-5.89h-1.24v-1.23h1.24v-2.23
		L404.95,101.89z"/>
	<path d="M410.35,101.96c0.01,0.63-0.38,1.05-0.99,1.05c-0.52,0-0.93-0.41-0.92-1.05c-0.01-0.64,0.41-1.05,0.95-1.05
		C409.97,100.91,410.35,101.32,410.35,101.96z M408.6,114.75v-10.15h1.61v10.15H408.6z"/>
	<path d="M412.74,107.22c0-1.19-0.06-1.81-0.08-2.62h1.41l0.08,1.22h0.04c0.43-0.82,1.26-1.39,2.33-1.39c1.41,0,2.46,1.04,2.46,3.5
		v6.83h-1.61v-6.54c0-1.21-0.23-2.41-1.41-2.41c-0.68,0-1.32,0.56-1.52,1.65c-0.05,0.25-0.08,0.56-0.08,0.91v6.4h-1.61V107.22z"/>
	<path d="M427.73,104.59c-0.03,0.7-0.09,1.6-0.09,3.16v5.68c0,2.68-0.34,3.69-1.01,4.43c-0.61,0.69-1.57,1.08-2.7,1.08
		c-0.87,0-1.7-0.21-2.24-0.5l0.38-1.27c0.41,0.21,1.08,0.45,1.89,0.45c1.28,0,2.07-0.8,2.07-3.11v-1.03H426
		c-0.34,0.79-1.09,1.23-1.94,1.23c-1.8,0-2.99-2.02-2.99-5.01c0-3.75,1.7-5.28,3.2-5.28c1.07,0,1.58,0.71,1.89,1.31h0.04l0.08-1.14
		H427.73z M426.04,108.09c0-0.26-0.02-0.52-0.08-0.74c-0.18-0.69-0.55-1.54-1.47-1.54c-1.17,0-1.8,1.58-1.8,3.83
		c0,2.6,0.82,3.78,1.79,3.78c0.5,0,1.13-0.23,1.45-1.45c0.09-0.32,0.1-0.63,0.1-0.92V108.09z"/>
	<path d="M437.75,114.75l-0.11-1.07h-0.06c-0.45,0.78-1.16,1.24-2.04,1.24c-1.36,0-2.41-1.14-2.41-2.9c0-2.54,2.04-3.66,4.34-3.68
		v-0.32c0-1.37-0.35-2.31-1.63-2.31c-0.62,0-1.2,0.2-1.68,0.53l-0.35-1.13c0.42-0.31,1.36-0.66,2.37-0.66c2.03,0,2.9,1.33,2.9,3.62
		v4.41c0,0.77,0.01,1.64,0.11,2.3H437.75z M437.51,109.49c-0.83,0.01-2.79,0.16-2.79,2.37c0,1.32,0.67,1.79,1.25,1.79
		c0.7,0,1.31-0.53,1.49-1.52c0.04-0.19,0.05-0.4,0.05-0.58V109.49z"/>
	<path d="M441.65,107.22c0-1.19-0.06-1.81-0.08-2.62h1.41l0.08,1.22h0.04c0.43-0.82,1.26-1.39,2.33-1.39c1.41,0,2.46,1.04,2.46,3.5
		v6.83h-1.61v-6.54c0-1.21-0.23-2.41-1.41-2.41c-0.68,0-1.32,0.56-1.52,1.65c-0.05,0.25-0.08,0.56-0.08,0.91v6.4h-1.61V107.22z"/>
	<path d="M456.55,100.22v12.1c0,0.68,0.06,1.84,0.08,2.43h-1.38l-0.11-1.27h-0.07c-0.33,0.72-1.05,1.44-2.13,1.44
		c-1.72,0-2.96-1.86-2.96-5.21c0-3.6,1.51-5.28,3.06-5.28c0.75,0,1.46,0.34,1.86,1.2h0.04v-5.41H456.55z M454.94,108.45
		c0-0.21,0-0.45-0.03-0.67c-0.09-1.06-0.72-1.98-1.5-1.98c-1.34,0-1.8,1.87-1.8,3.9c0,2.15,0.55,3.86,1.71,3.86
		c0.5,0,1.19-0.26,1.56-1.73c0.05-0.19,0.06-0.43,0.06-0.67V108.45z"/>
	<path d="M462.79,100.81c0.67-0.17,1.47-0.27,2.36-0.27c1.28,0,2.37,0.27,3.12,0.98c0.61,0.57,0.93,1.42,0.93,2.43
		c0,1.44-0.79,2.59-2.17,3.14v0.05c1.64,0.44,2.62,1.76,2.62,3.61c0,1.16-0.38,2.11-1.01,2.8c-0.8,0.91-2.12,1.29-3.75,1.29
		c-1.04,0-1.67-0.06-2.1-0.14V100.81z M464.39,106.61h0.74c1.32,0,2.45-1.02,2.45-2.5c0-1.31-0.6-2.31-2.33-2.31
		c-0.38,0-0.67,0.04-0.86,0.1V106.61z M464.39,113.47c0.2,0.04,0.47,0.07,0.82,0.07c1.67,0,2.76-0.98,2.76-2.81
		c0-1.95-1.36-2.88-2.88-2.89h-0.71V113.47z"/>
	<path d="M473.48,101.96c0.01,0.63-0.38,1.05-0.99,1.05c-0.52,0-0.93-0.41-0.92-1.05c-0.01-0.64,0.41-1.05,0.95-1.05
		C473.1,100.91,473.48,101.32,473.48,101.96z M471.72,114.75v-10.15h1.61v10.15H471.72z"/>
	<path d="M475.86,100.22h1.61v14.53h-1.61V100.22z"/>
	<path d="M480.14,100.22h1.61v14.53h-1.61V100.22z"/>
	<path d="M486.18,101.96c0.01,0.63-0.38,1.05-0.99,1.05c-0.52,0-0.93-0.41-0.92-1.05c-0.01-0.64,0.41-1.05,0.95-1.05
		C485.8,100.91,486.18,101.32,486.18,101.96z M484.43,114.75v-10.15h1.61v10.15H484.43z"/>
	<path d="M488.56,107.22c0-1.19-0.06-1.81-0.08-2.62h1.41l0.08,1.22h0.04c0.43-0.82,1.26-1.39,2.33-1.39c1.4,0,2.46,1.04,2.46,3.5
		v6.83h-1.61v-6.54c0-1.21-0.23-2.41-1.41-2.41c-0.68,0-1.32,0.56-1.52,1.65c-0.05,0.25-0.08,0.56-0.08,0.91v6.4h-1.61V107.22z"/>
	<path d="M503.56,104.59c-0.03,0.7-0.09,1.6-0.09,3.16v5.68c0,2.68-0.34,3.69-1.01,4.43c-0.61,0.69-1.57,1.08-2.7,1.08
		c-0.87,0-1.7-0.21-2.24-0.5l0.38-1.27c0.41,0.21,1.08,0.45,1.89,0.45c1.28,0,2.07-0.8,2.07-3.11v-1.03h-0.04
		c-0.34,0.79-1.08,1.23-1.94,1.23c-1.8,0-2.99-2.02-2.99-5.01c0-3.75,1.7-5.28,3.2-5.28c1.07,0,1.58,0.71,1.89,1.31h0.04l0.08-1.14
		H503.56z M501.87,108.09c0-0.26-0.02-0.52-0.08-0.74c-0.18-0.69-0.55-1.54-1.47-1.54c-1.17,0-1.8,1.58-1.8,3.83
		c0,2.6,0.82,3.78,1.79,3.78c0.5,0,1.13-0.23,1.45-1.45c0.09-0.32,0.1-0.63,0.1-0.92V108.09z"/>
	<path d="M518.25,108.65c-0.09-1.87-0.19-3.94-0.14-5.54h-0.09c-0.3,1.58-0.68,3.27-1.12,4.92l-1.74,6.63h-1.03l-1.66-6.36
		c-0.47-1.8-0.88-3.55-1.16-5.19h-0.07c0.01,1.67-0.08,3.65-0.17,5.66l-0.26,5.98h-1.46l0.84-14.15h1.76l1.65,6.47
		c0.47,1.87,0.83,3.25,1.14,4.86h0.06c0.28-1.61,0.59-2.96,1.04-4.86l1.61-6.47h1.81l0.81,14.15h-1.51L518.25,108.65z"/>
	<path d="M526.48,114.75l-0.11-1.07h-0.06c-0.45,0.78-1.16,1.24-2.04,1.24c-1.36,0-2.41-1.14-2.41-2.9c0-2.54,2.04-3.66,4.34-3.68
		v-0.32c0-1.37-0.35-2.31-1.63-2.31c-0.62,0-1.2,0.2-1.68,0.53l-0.35-1.13c0.42-0.31,1.36-0.66,2.37-0.66
		c2.04,0,2.91,1.33,2.91,3.62v4.41c0,0.77,0.01,1.64,0.11,2.3H526.48z M526.24,109.49c-0.83,0.01-2.79,0.16-2.79,2.37
		c0,1.32,0.67,1.79,1.25,1.79c0.7,0,1.3-0.53,1.49-1.52c0.04-0.19,0.05-0.4,0.05-0.58V109.49z"/>
	<path d="M530.38,107.22c0-1.19-0.06-1.81-0.08-2.62h1.41l0.08,1.22h0.04c0.43-0.82,1.26-1.39,2.33-1.39c1.41,0,2.46,1.04,2.46,3.5
		v6.83H535v-6.54c0-1.21-0.23-2.41-1.41-2.41c-0.68,0-1.32,0.56-1.52,1.65c-0.05,0.25-0.08,0.56-0.08,0.91v6.4h-1.61V107.22z"/>
	<path d="M543.17,114.75l-0.11-1.07h-0.06c-0.45,0.78-1.16,1.24-2.04,1.24c-1.36,0-2.41-1.14-2.41-2.9c0-2.54,2.04-3.66,4.34-3.68
		v-0.32c0-1.37-0.35-2.31-1.63-2.31c-0.62,0-1.2,0.2-1.68,0.53l-0.35-1.13c0.42-0.31,1.36-0.66,2.37-0.66c2.03,0,2.9,1.33,2.9,3.62
		v4.41c0,0.77,0.01,1.64,0.11,2.3H543.17z M542.93,109.49c-0.83,0.01-2.79,0.16-2.79,2.37c0,1.32,0.67,1.79,1.25,1.79
		c0.7,0,1.3-0.53,1.49-1.52c0.04-0.19,0.05-0.4,0.05-0.58V109.49z"/>
	<path d="M553.29,104.59c-0.03,0.7-0.09,1.6-0.09,3.16v5.68c0,2.68-0.34,3.69-1.01,4.43c-0.61,0.69-1.57,1.08-2.7,1.08
		c-0.87,0-1.7-0.21-2.24-0.5l0.38-1.27c0.41,0.21,1.08,0.45,1.89,0.45c1.28,0,2.07-0.8,2.07-3.11v-1.03h-0.04
		c-0.34,0.79-1.08,1.23-1.94,1.23c-1.8,0-2.99-2.02-2.99-5.01c0-3.75,1.7-5.28,3.2-5.28c1.07,0,1.58,0.71,1.89,1.31h0.04l0.08-1.14
		H553.29z M551.6,108.09c0-0.26-0.02-0.52-0.08-0.74c-0.18-0.69-0.55-1.54-1.47-1.54c-1.17,0-1.8,1.58-1.8,3.83
		c0,2.6,0.82,3.78,1.79,3.78c0.5,0,1.13-0.23,1.45-1.45c0.09-0.32,0.1-0.63,0.1-0.92V108.09z"/>
	<path d="M556.86,109.81c0.01,3.12,1.24,3.77,2.4,3.77c0.7,0,1.28-0.17,1.68-0.38l0.27,1.18c-0.57,0.32-1.43,0.49-2.24,0.49
		c-2.43,0-3.69-1.99-3.69-5.1c0-3.29,1.4-5.35,3.42-5.35c2.08,0,2.91,2.19,2.91,4.47c0,0.4-0.01,0.67-0.03,0.91H556.86z
		 M560.05,108.62c0.03-2.04-0.74-2.94-1.51-2.94c-1.07,0-1.6,1.54-1.67,2.94H560.05z"/>
	<path d="M563.62,107.22c0-1.19-0.06-1.81-0.08-2.62h1.42l0.08,1.25h0.04c0.44-0.82,1.21-1.42,2.29-1.42c0.95,0,1.75,0.45,2.13,1.55
		h0.04c0.27-0.5,0.62-0.91,1-1.16c0.41-0.26,0.88-0.39,1.4-0.39c1.38,0,2.44,1,2.44,3.59v6.73h-1.6v-6.36
		c0-1.33-0.19-2.61-1.42-2.61c-0.68,0-1.26,0.57-1.49,1.52c-0.06,0.27-0.07,0.58-0.07,0.92v6.53h-1.6v-6.66
		c0-1.12-0.2-2.31-1.4-2.31c-0.67,0-1.32,0.57-1.51,1.65c-0.05,0.26-0.07,0.56-0.07,0.87v6.45h-1.6V107.22z"/>
	<path d="M578.05,109.81c0.01,3.12,1.24,3.77,2.4,3.77c0.7,0,1.28-0.17,1.68-0.38l0.27,1.18c-0.57,0.32-1.43,0.49-2.24,0.49
		c-2.43,0-3.69-1.99-3.69-5.1c0-3.29,1.4-5.35,3.42-5.35c2.08,0,2.91,2.19,2.91,4.47c0,0.4-0.01,0.67-0.03,0.91H578.05z
		 M581.24,108.62c0.03-2.04-0.74-2.94-1.51-2.94c-1.07,0-1.6,1.54-1.67,2.94H581.24z"/>
	<path d="M584.81,107.22c0-1.19-0.06-1.81-0.08-2.62h1.41l0.08,1.22h0.04c0.43-0.82,1.26-1.39,2.33-1.39c1.41,0,2.46,1.04,2.46,3.5
		v6.83h-1.61v-6.54c0-1.21-0.23-2.41-1.41-2.41c-0.68,0-1.32,0.56-1.52,1.65c-0.05,0.25-0.08,0.56-0.08,0.91v6.4h-1.61V107.22z"/>
	<path d="M595.44,101.89v2.7h1.95v1.23h-1.95v6.04c0,1.32,0.47,1.67,1.06,1.67c0.26,0,0.47-0.02,0.65-0.06l0.07,1.25
		c-0.29,0.1-0.67,0.16-1.2,0.16c-0.64,0-1.21-0.17-1.59-0.61c-0.41-0.46-0.61-1.14-0.61-2.55v-5.89h-1.24v-1.23h1.24v-2.23
		L595.44,101.89z"/>
</g>
</svg>
